<svg width="17" height="18" viewBox="0 0 17 18" fill="none" xmlns="http://www.w3.org/2000/svg">
<path d="M15.7104 10.4302C14.5504 8.0902 13.3904 5.7602 12.2204 3.4202C11.9404 2.8502 11.6704 2.2602 11.3104 1.7502C10.4504 0.530199 8.88039 0.350199 7.75039 1.3002C7.30039 1.6802 7.02039 2.1902 6.76039 2.7102C5.86039 4.4902 4.96039 6.2702 4.07039 8.0602C3.16039 9.8802 2.26039 11.6902 1.35039 13.5102C1.14039 13.9302 1.00039 14.3702 0.990394 14.8402C0.950394 16.2402 1.97039 17.2702 3.39039 17.3002C3.61039 17.2602 3.83039 17.2402 4.05039 17.1902C4.75039 17.0302 5.29039 16.5902 5.83039 16.1502C7.42039 14.8602 9.0904 13.6702 10.8904 12.6902C12.2904 11.9302 13.7304 11.2902 15.3304 11.1002C15.9404 11.0302 15.9604 10.9702 15.6904 10.4202L15.7104 10.4302ZM11.9004 9.5902C11.8204 9.7702 11.6704 9.8902 11.4804 9.9702C10.9004 10.2202 10.3104 10.4702 9.74039 10.7502C8.34039 11.4502 7.05039 12.3402 5.80039 13.2702C5.60039 13.4202 5.39039 13.5202 5.14039 13.4302C4.85039 13.3302 4.70039 13.0702 4.81039 12.7802C4.88039 12.5802 4.98039 12.4002 5.08039 12.2102C6.29039 9.7802 7.50039 7.3602 8.71039 4.9302C8.73039 4.8902 8.75039 4.8502 8.77039 4.8102C9.01039 4.3502 9.44039 4.2902 9.78039 4.6902C9.90039 4.8402 9.99039 5.0202 10.0804 5.1902C10.6804 6.4102 11.2704 7.6302 11.8604 8.8502C11.8904 8.9202 11.9204 9.0002 11.9404 9.0702C11.9904 9.2302 11.9904 9.4202 11.9204 9.5702L11.9004 9.5902ZM17.0004 14.9302C17.0004 16.2202 15.9904 17.2302 14.7004 17.2302C13.4504 17.2302 12.4104 16.1602 12.4204 14.9002C12.4304 13.6602 13.4604 12.6502 14.7104 12.6502C15.9504 12.6502 17.0004 13.7002 17.0004 14.9302Z" fill="#DBFE01"/>
</svg>
